<svg height="512" viewBox="0 0 512 512" width="512" xmlns="http://www.w3.org/2000/svg"><g id="Fill_out_line" data-name="Fill out line"><rect fill="#f0cd81" height="464" rx="16" width="336" x="24" y="24"/><rect fill="#f3b73f" height="32" rx="16" width="128" x="128" y="48"/><rect fill="#03999c" height="32" rx="8" width="72" x="112" y="264"/><rect fill="#03999c" height="32" rx="8" width="96" x="168" y="328"/><rect fill="#03999c" height="32" rx="8" width="128" x="192" y="392"/><path d="m208 192v32a8 8 0 0 1 -8 8h-56l-16 16v-16h-8a8 8 0 0 1 -8-8v-32a8 8 0 0 1 8-8h80a8 8 0 0 1 8 8z" fill="#b1cdb4"/><path d="m320 264v32a8 8 0 0 1 -8 8h-80l-16 16v-16h-8a8 8 0 0 1 -8-8v-32a8 8 0 0 1 8-8h104a8 8 0 0 1 8 8z" fill="#b1cdb4"/><path d="m496 390.64v105.36h-80.34009l-41.93991-69.66-.99-1.64c-4.1001-8.84 6.11011-25.27 42.92993-48.69995 37.5-23.87 56.12012-25.93994 61.41016-17.98l.57007.98v.01z" fill="#133852"/><g fill="#f5a971"><path d="m375.65909 320c0-24-16-48-40-48s-36 28-44 44-32 12-32-4 12-24 28-40c0 0 30-37.6077 61.00758-36 20 .33333 36.66666 8.33333 37.66666 29.66667s-10.67424 54.33333-10.67424 54.33333"/><path d="m379.65909 344.40549c0-24-16-48-40-48s-33 30.34451-41 46.34451-30.25 7.25-23.78371-10.75c5-14 9.78371-20 25.78371-36l23.3135-32.78008 70.58441 19.11341z"/><path d="m367.75 215v39.75c-39.75-30-87.75 9.25-87.75 9.25-8 8-24 8-24-16s16-48 40-48 51.25 3 71.75 15z"/><path d="m479.65909 432-16-64c-8-32-32-96-56-136s-80-56-104-48-32 48-32 56 16 16 32-8 24-24 48 0 16 88-8 88-40-16-40-40-32-24-32 0 8 56 40 80 80 24 104 64l3.46591 6.75z"/></g><path d="m231.659 288 24-32 168-80 16.17 32.34-168.17 79.66z" fill="#537ec2"/><path d="m427.408 183.497 26.997-12.789 8.844 17.687-26.998 12.789z" fill="#2a447d"/><path d="m271.659 288-16-32-24 32z" fill="#435e99"/><path d="m360.65269 245.84517c12.10295 28.65822 3.24175 74.15483-16.9936 74.15483-24 0-40-16-40-40s-32-24-32 0 8 56 40 80 80 24 104 64l3.46591 6.75 60.53409 1.25-16-64c-8-32-32-96-56-136q-1.98783-3.313-4.25757-6.40654z" fill="#f5a971"/><path d="m374.72094 199.59985c-25.34536-15.68852-55.19594-20.88847-71.06185-15.59985-24 8-32 48-32 56s16 16 32-8c11.81509-17.72264 19.26779-22.35812 32.02224-13.90642z" fill="#f5a971"/><path d="m496 390.64v105.36h-80.34009l-41.93991-69.66c7.83008 10.39 39.34009 7.39 65.93994-10.34 26.73023-17.82007 43.54-45.57007 37.98023-56.99z" fill="#0a4b69"/><path d="m423.65909 216-16.15385-32.30769 16.15385-7.69231 20.42229 40.84458a8 8 0 0 1 -3.57771 10.73313l-32.59289 16.29644a9.22567 9.22567 0 0 1 -12.37754-4.12584 9.22568 9.22568 0 0 1 4.3023-12.46344z" fill="#435e99"/><path d="m144 84h96a20 20 0 0 0 0-40h-96a20 20 0 0 0 0 40zm0-32h96a12 12 0 0 1 0 24h-96a12 12 0 0 1 0-24z"/><path d="m144 68h16a4 4 0 0 0 0-8h-16a4 4 0 0 0 0 8z"/><path d="m176 68h32a4 4 0 0 0 0-8h-32a4 4 0 0 0 0 8z"/><path d="m224 68h16a4 4 0 0 0 0-8h-16a4 4 0 0 0 0 8z"/><path d="m64 124h16a4 4 0 0 0 0-8h-16a4 4 0 0 0 0 8z"/><path d="m80 212h-16a4 4 0 0 0 0 8h16a4 4 0 0 0 0-8z"/><path d="m80 276h-16a4 4 0 0 0 0 8h16a4 4 0 0 0 0-8z"/><path d="m64 156h16a4 4 0 0 0 0-8h-16a4 4 0 0 0 0 8z"/><path d="m80 340h-16a4 4 0 0 0 0 8h16a4 4 0 0 0 0-8z"/><path d="m188 288v-16a12.01343 12.01343 0 0 0 -12-12h-56a12.01343 12.01343 0 0 0 -12 12v16a12.01343 12.01343 0 0 0 12 12h56a12.01343 12.01343 0 0 0 12-12zm-72 0v-16a4.00427 4.00427 0 0 1 4-4h56a4.00427 4.00427 0 0 1 4 4v16a4.00427 4.00427 0 0 1 -4 4h-56a4.00427 4.00427 0 0 1 -4-4z"/><path d="m136 276h-8a4 4 0 0 0 0 8h8a4 4 0 0 0 0-8z"/><path d="m168 276h-16a4 4 0 0 0 0 8h16a4 4 0 0 0 0-8z"/><path d="m216 340h-32a4 4 0 0 0 0 8h32a4 4 0 0 0 0-8z"/><path d="m248 340h-16a4 4 0 0 0 0 8h16a4 4 0 0 0 0-8z"/><path d="m312 388h-112a12.01343 12.01343 0 0 0 -12 12v16a12.01343 12.01343 0 0 0 12 12h112a12.01343 12.01343 0 0 0 12-12v-16a12.01343 12.01343 0 0 0 -12-12zm4 28a4.00427 4.00427 0 0 1 -4 4h-112a4.00427 4.00427 0 0 1 -4-4v-16a4.00427 4.00427 0 0 1 4-4h112a4.00427 4.00427 0 0 1 4 4z"/><path d="m240 404h-32a4 4 0 0 0 0 8h32a4 4 0 0 0 0-8z"/><path d="m304 404h-48a4 4 0 0 0 0 8h48a4 4 0 0 0 0-8z"/><path d="m120 236h4v12a3.99991 3.99991 0 0 0 6.82812 2.82861l14.82911-14.82861h54.34277a12.01343 12.01343 0 0 0 12-12v-32a12.01343 12.01343 0 0 0 -12-12h-80a12.01343 12.01343 0 0 0 -12 12v32a12.01343 12.01343 0 0 0 12 12zm-4-44a4.00427 4.00427 0 0 1 4-4h80a4.00427 4.00427 0 0 1 4 4v32a4.00427 4.00427 0 0 1 -4 4h-56a4 4 0 0 0 -2.82812 1.17139l-9.17188 9.17187v-6.34326a4.0002 4.0002 0 0 0 -4-4h-8a4.00427 4.00427 0 0 1 -4-4z"/><path d="m128 204h16a4 4 0 0 0 0-8h-16a4 4 0 0 0 0 8z"/><path d="m160 204h32a4 4 0 0 0 0-8h-32a4 4 0 0 0 0 8z"/><path d="m128 220h40a4 4 0 0 0 0-8h-40a4 4 0 0 0 0 8z"/><path d="m216 276h16a4 4 0 0 0 0-8h-16a4 4 0 0 0 0 8z"/><path d="m80 404h-16a4 4 0 0 0 0 8h16a4 4 0 0 0 0-8z"/><path d="m484.68994 355.21a14.82036 14.82036 0 0 0 -.86987-1.49c-2.63013-4.03-7.89014-8.34-18.21021-7.82007-9.10986-28.69993-24.78979-68.99002-41.63986-101.10993l20.12009-10.06a16.00917 16.00917 0 0 0 7.1499-21.46l-4.17993-8.3501 19.63994-9.3099a7.96074 7.96074 0 0 0 4.1001-4.57 8.04883 8.04883 0 0 0 -.39014-6.22l-8.83984-17.67017a8.04033 8.04033 0 0 0 -10.59012-3.66983l-19.91992 9.42993-.24-.49a8.00238 8.00238 0 0 0 -4.6001-4c-.03-.01-.07007-.02-.09985-.02991a7.96047 7.96047 0 0 0 -6.04.45l-44.92022 21.69998q-3.49475-1.99512-7.15991-3.8v-146.74a24.03189 24.03189 0 0 0 -24-24h-304a24.03189 24.03189 0 0 0 -24 24v432a24.03189 24.03189 0 0 0 24 24h304a24.03189 24.03189 0 0 0 24-24v-39.64l38.32007 63.64h14.01l-36.24-60.17993a44.89657 44.89657 0 0 0 7.33984.56994c14.7 0 33.86011-6 50.45-17.06 19.56003-13.04001 34.62009-31.49001 39.30002-46.25001l14.82007 25.54v-23.92zm-32.10986-179.21 5.26 10.53-19.76 9.36-5.27-10.53zm-30.71 5.37 18.62992 37.26a3.99292 3.99292 0 0 1 -1.79 5.37l-32.58984 16.30005a5.22993 5.22993 0 0 1 -7.01026-2.34009 5.23865 5.23865 0 0 1 2.44019-7.06006l23.82003-11.2899a3.994 3.994 0 0 0 1.86987-5.4l-14.20999-28.42zm-16.04 7.92 12.41992 24.84-113.55 53.78992a19.63771 19.63771 0 0 0 -36.11992 4.97008l-7.52-15.02 14.7-6.9701a16.29372 16.29372 0 0 0 5.96 1.12012c7.75 0 16.04-5.3 23.24-14.94995zm-66.17017 103.11991c-9.23 0-17.18994 3.79-24.21 11.57007a32.92675 32.92675 0 0 1 -6.05981-11.6c7.98-11.01 16.57983-16.38 26.26977-16.38 9.73023 0 18.68018 4.57007 25.39014 12.8999a70.63558 70.63558 0 0 1 -1.97 8.77 38.48852 38.48852 0 0 0 -19.4201-5.25997zm16.53 12.86011a32.55832 32.55832 0 0 1 -2.06982 3.67993c-3.10009 4.68005-6.62009 7.05005-10.46018 7.05005-1.25 0-2.47-.05-3.65991-.14v-15.44008a30.15337 30.15337 0 0 1 16.18994 4.85008zm-24.18991-3.53002v12.75a33.89 33.89 0 0 1 -10.71-5.04 27.06861 27.06861 0 0 1 10.71-7.71zm3.65991-33.74c-10.40991 0-19.61987 4.52-27.97 13.75-.02-.58008-.03-1.16-.03-1.75a28.8045 28.8045 0 0 0 -.34985-4.46l51.13989-24.23a77.24271 77.24271 0 0 1 3.62012 27.05 39.06915 39.06915 0 0 0 -26.41016-10.36zm-57.63991 84.93994a16.57381 16.57381 0 0 0 8.24 2.21 16.84925 16.84925 0 0 0 10.01-3.36994 109.56112 109.56112 0 0 0 12.99 11.42 120.0543 120.0543 0 0 0 22.74 13.01v67.79h-232v-304h232v39.16992c-11.26-1.84-21.65991-1.60986-29.60986 1.04-9.55 3.18-16.63013 10.51-21.82007 19.01-16.90015 7.42998-28.57007 27.23008-28.57007 48.78008 0 1.38.06006 2.72.15991 4h-44.15991a12.00943 12.00943 0 0 0 -12 12v32a12.00943 12.00943 0 0 0 12 12h4v12a3.99725 3.99725 0 0 0 2.47 3.7 4.02165 4.02165 0 0 0 4.36011-.87l14.8298-14.83h22.24a32.46113 32.46113 0 0 0 -.24 4 17.18953 17.18953 0 0 0 6.36009 13.64 11.82916 11.82916 0 0 0 -6.02-1.64h-80a12.00943 12.00943 0 0 0 -12 12v16a12.00943 12.00943 0 0 0 12 12h80a12.00943 12.00943 0 0 0 12-12v-16a11.98783 11.98783 0 0 0 -4.14014-9.05 20.67091 20.67091 0 0 0 7.54 2.89c-.08984.27-.18994.53-.29.80993-4.02978 11.23007 1.2002 19.03 6.91014 22.29001zm.62012-19.59c.46972-1.30994.91992-2.5 1.36987-3.63a99.11243 99.11243 0 0 0 10.88989 16.08008 8.67349 8.67349 0 0 1 -8.90988.18998c-3.16993-1.81007-5.71-6.08009-3.34986-12.64zm-178.64012-201.34994v-24h232v24zm169.06006 113.23-9.03 4.27q-.03-.735-.03-1.5c0-13.66 5.34009-26.42993 13.81006-34.64-4.6001 12.28991-6.15015 23.78991-6.15015 26.64a10.63461 10.63461 0 0 0 1.40009 5.23zm-53.06006 54.77h-8a3.999 3.999 0 0 1 -4-4v-32a3.999 3.999 0 0 1 4-4h39.65991l-18 24h-13.65991a4 4 0 0 0 0 8h46.59009a37.66155 37.66155 0 0 0 -4.61011 8h-25.97998a4.004 4.004 0 0 0 -2.83008 1.16992l-9.16992 9.17008v-6.34a3.999 3.999 0 0 0 -4-4zm23.65991-16 15.32009-20.42 10.21 20.42zm20.34009 52v16a3.999 3.999 0 0 1 -4 4h-80a3.999 3.999 0 0 1 -4-4v-16a3.999 3.999 0 0 1 4-4h80a3.999 3.999 0 0 1 4 4zm7.81006-16a9.3208 9.3208 0 0 1 -4.15015-8c0-5.95 1.89014-10.59009 5.32007-15.23a103.43433 103.43433 0 0 0 7.33008 25.35 13.4647 13.4647 0 0 1 -8.5-2.12zm98.29-120.74-30.16016 14.29c-14.84985-8.68-24.40991-.57007-35.60986 16.23-8.29004 12.43-16.32004 15.32-21.07004 13.87991-2.36011-.71-3.6001-2.37988-3.6001-3.65991 0-3.63 1.96021-15.11 6.69019-26.46 4.02-9.65 11.2-21.96008 22.56982-25.75 12.45997-4.15 37.29009-1.3 61.18019 11.47zm-10.10006 186.98v85.76a12.00943 12.00943 0 0 1 -12 12h-304a12.00943 12.00943 0 0 1 -12-12v-432a12.00943 12.00943 0 0 1 12-12h304a12.00943 12.00943 0 0 1 12 12v145.85a127.20536 127.20536 0 0 0 -16-5.04993v-76.80007a3.999 3.999 0 0 0 -4-4h-288a3.999 3.999 0 0 0 -4 4v344a3.999 3.999 0 0 0 4 4h288a3.999 3.999 0 0 0 4-4v-68.34009c3.8 1.56006 7.62012 3.06006 11.40991 4.54 1.54.6001 3.08008 1.2 4.6001 1.8-.00001.08009-.01001.16-.01001.24009zm-304-254.24v-24h40v24zm40 8v304h-40v-304zm276 267.29v-11.99c2.14014.96 4.37012 2 6.60986 3.11987a56.431 56.431 0 0 0 -6.60986 8.87013zm8.95 16.7c-3.23-4.15 1.12012-12.62 11.36011-22.42993a75.01851 75.01851 0 0 1 23.24 23.3999c-16.65021 5.05003-30.70001 4.05003-34.60011-.96997zm60.49-11.32007a99.69535 99.69535 0 0 1 -18.18 9.58007l-.03-.05c-.04-.07995-.08984-.16992-.13989-.26-15.59011-25.97-40.59011-35.74-64.77004-45.19-14.67993-5.74-28.54-11.16-40.26-19.94995-31.74-23.8-38.40015-54.90015-38.40015-76.8 0-9.67 6.03-14 12-14s12 4.33 12 14c0 26.32007 17.68018 44 44 44 6.6001 0 12.52-3.67993 17.13013-10.64 10.24-15.46009 12.24-44.53 4.91992-65.48l24.86011-11.78a13.21778 13.21778 0 0 0 19.12992 11.34995l1.65015-.82995c20.62985 38.31989 41.00971 92.69001 48.42985 122.34995l4.59009 18.3501a109.1096 109.1096 0 0 1 -26.93015 25.34982zm32.85-34.61988-2.75-11.02c-.7-2.82007-1.53-5.86011-2.45-9.08008 3.75-.34 7.8.07007 9.05981 3.05 1.47031 3.46003.08019 9.67996-3.85981 17.05008z"/></g></svg>