<svg height="512" viewBox="0 0 512 512" width="512" xmlns="http://www.w3.org/2000/svg"><g id="Flat"><path d="m222.627 481.373 185.373-185.373-128-128-185.373 185.373a22.627 22.627 0 0 0 -6.627 16 22.628 22.628 0 0 0 22.627 22.627 22.628 22.628 0 0 0 16-6.627 22.627 22.627 0 0 0 -6.627 16 22.628 22.628 0 0 0 22.627 22.627 22.628 22.628 0 0 0 16-6.627 22.627 22.627 0 0 0 -6.627 16 22.628 22.628 0 0 0 22.627 22.627 22.628 22.628 0 0 0 16-6.627 22.627 22.627 0 0 0 -6.627 16 22.628 22.628 0 0 0 22.627 22.627 22.628 22.628 0 0 0 16-6.627z" fill="#f6a368"/><path d="m109.573 350.828h87.196v16h-87.196z" fill="#f09a5d" transform="matrix(.707 -.707 .707 .707 -208.867 213.405)"/><path d="m141.573 382.828h87.196v16h-87.196z" fill="#f09a5d" transform="matrix(.707 -.707 .707 .707 -222.121 245.405)"/><path d="m173.573 414.828h87.196v16h-87.196z" fill="#f09a5d" transform="matrix(.707 -.707 .707 .707 -235.376 277.405)"/><path d="m401.373 353.373-185.373-185.373-128 128 185.373 185.373a22.627 22.627 0 0 0 16 6.627 22.628 22.628 0 0 0 22.627-22.627 22.628 22.628 0 0 0 -6.627-16 22.627 22.627 0 0 0 16 6.627 22.628 22.628 0 0 0 22.627-22.627 22.628 22.628 0 0 0 -6.627-16 22.627 22.627 0 0 0 16 6.627 22.628 22.628 0 0 0 22.627-22.627 22.628 22.628 0 0 0 -6.627-16 22.627 22.627 0 0 0 16 6.627 22.628 22.628 0 0 0 22.627-22.627 22.628 22.628 0 0 0 -6.627-16z" fill="#fdb683"/><g fill="#f6a368"><path d="m270.828 379.231h16v87.196h-16z" transform="matrix(.707 -.707 .707 .707 -217.318 321.003)"/><path d="m302.828 347.231h16v87.196h-16z" transform="matrix(.707 -.707 .707 .707 -185.318 334.258)"/><path d="m334.828 315.231h16v87.196h-16z" transform="matrix(.707 -.707 .707 .707 -153.318 347.513)"/></g><path d="m280 168-112 112a45.255 45.255 0 0 0 64 0l16-16a73.712 73.712 0 0 0 78.813-1.875 111.543 111.543 0 0 0 16.994-13.932l8.193-8.193z" fill="#fdc8a2"/><path d="m45.49 193.373h181.019v45.255h-181.019z" fill="#f1ddc1" transform="matrix(.707 -.707 .707 .707 -112.902 159.431)"/><path d="m64 16h-48v208l40 40 128-128z" fill="#426887"/><circle cx="56" cy="192" fill="#35546d" r="16"/><path d="m96 440a56.063 56.063 0 0 1 -56-56h16a40.045 40.045 0 0 0 40 40z" fill="#f1ddc1"/><path d="m400 440v-16a40.045 40.045 0 0 0 40-40h16a56.063 56.063 0 0 1 -56 56z" fill="#f1ddc1"/><path d="m337.373 125.49h45.255v181.019h-45.255z" fill="#f1ddc1" transform="matrix(.707 -.707 .707 .707 -47.294 317.823)"/><path d="m432 16h48v208l-40 40-128-128z" fill="#348ed8"/><circle cx="440" cy="192" fill="#2b78b7" r="16"/></g></svg>