<svg id="Capa_1" enable-background="new 0 0 512 512" height="512" viewBox="0 0 512 512" width="512" xmlns="http://www.w3.org/2000/svg"><g><path d="m126.98 121.964c4.699-68.144 61.465-121.964 130.802-121.964s126.103 53.82 130.802 121.964c.208 3.024 0 128.98-130.802 128.98-130.803-.001-131.011-125.956-130.802-128.98z" fill="#ffba57"/><path d="m257.782 243.929c-69.336 0-126.094-53.822-130.794-121.965-.209 3.024-.323 6.075-.323 9.152 0 72.414 58.703 131.117 131.117 131.117s131.116-58.703 131.116-131.117c0-3.077-.114-6.128-.323-9.152-4.699 68.143-61.457 121.965-130.793 121.965z" fill="#ffac3e"/><g fill="#ff4755"><path d="m180.171 400.628-51.698-54.961c-.76-.808-1.657-1.494-2.681-1.918-3.069-1.269-6.418-.451-8.538 1.803l-51.656 54.916c-1.682 1.788-2.546 4.257-2.117 6.674.667 3.758 3.886 6.339 7.521 6.339h14.974v72.59l9 16.931h55.666l9-16.931v-72.59h14.753c2.454 0 4.844-1.062 6.311-3.029 2.282-3.062 1.956-7.176-.535-9.824z"/><path d="m314.997 348.001-51.66-54.92c-2.178-2.316-5.657-3.116-8.79-1.692-.903.411-1.698 1.03-2.378 1.753l-51.598 54.855c-1.682 1.788-2.546 4.257-2.117 6.674.667 3.758 3.886 6.339 7.521 6.339h14.974v125.06l9 16.931h55.666l9-16.931v-125.06h14.974c3.634 0 6.852-2.579 7.521-6.336.43-2.416-.432-4.885-2.113-6.673z"/><path d="m449.969 299.454-51.659-54.92c-1.441-1.532-3.452-2.401-5.555-2.401s-4.114.869-5.555 2.401l-51.66 54.92c-1.681 1.788-2.544 4.257-2.114 6.673.669 3.757 3.887 6.336 7.521 6.336h14.974v173.607l9 16.931h55.666l9-16.931v-173.607h14.973c3.634 0 6.852-2.579 7.521-6.336.432-2.416-.431-4.886-2.112-6.673z"/></g><path d="m85.976 486.069v18.304c0 4.212 3.415 7.627 7.627 7.627h58.413c4.212 0 7.627-3.415 7.627-7.627v-18.304z" fill="#fc2b3a"/><path d="m220.949 486.069v18.304c0 4.212 3.415 7.627 7.627 7.627h58.413c4.212 0 7.627-3.415 7.627-7.627v-18.304z" fill="#fc2b3a"/><path d="m355.922 486.069v18.304c0 4.212 3.414 7.627 7.627 7.627h58.413c4.212 0 7.627-3.415 7.627-7.627v-18.304z" fill="#fc2b3a"/><path d="m165.515 121.964c4.596-46.908 44.152-83.561 92.267-83.561 48.004 0 87.487 36.482 92.234 83.234.316 3.117.002 93.193-92.234 93.193-92.269-.001-92.562-89.855-92.267-92.866z" fill="#ffe27a"/><path d="m257.782 205.525c-48.115 0-87.667-36.653-92.264-83.561-.295 3.011-.45 6.063-.45 9.152 0 51.204 41.509 92.713 92.713 92.713s92.713-41.509 92.713-92.713c0-3.089-.155-6.141-.45-9.152-4.595 46.908-44.146 83.561-92.262 83.561z" fill="#f9cf58"/><path d="m254.879 166.882c-12.001-.731-15.298-7.954-15.91-9.651-.874-3.266-3.846-5.674-7.388-5.674-4.229 0-7.657 3.428-7.657 7.657 0 .614.08 1.209.217 1.781l-.003.001c.007.027.022.08.041.146.094.361.205.715.348 1.053 1.413 3.899 7.077 15.995 23.765 19.226v10.168c0 4.22 3.421 7.641 7.642 7.641s7.642-3.421 7.642-7.641v-9.938c7.314-1.273 12.228-4.47 15.3-7.361 5.716-5.379 9.129-13.51 9.129-21.752 0-7.743-3.037-26.088-31.167-29.192-5.572-.615-9.548-2.388-11.816-5.271-2.002-2.545-2.219-5.357-2.219-6.448 0-1.344.369-13.131 13.131-13.131 8.373 0 11.754 5.325 12.39 6.483 1.133 2.812 3.882 4.8 7.1 4.8 4.229 0 7.657-3.428 7.657-7.657 0-1.257-.309-2.44-.846-3.487l.004-.002c-2.154-4.682-8.236-12.006-18.663-14.528v-10.255c0-4.22-3.421-7.642-7.642-7.642-4.22 0-7.642 3.421-7.642 7.642v10.224c-15.083 3.581-20.772 17.654-20.772 27.552 0 11.006 7.239 24.657 27.641 26.909 17.56 1.938 17.56 11.018 17.56 14.002 0 3.17-1.134 7.625-4.319 10.621-3.01 2.834-7.557 4.088-13.523 3.724z" fill="#ff4755"/><g fill="#ffe27a"><path d="m90.05 133.614c0-4.22-3.421-7.642-7.642-7.642h-44.819c-4.22 0-7.642 3.421-7.642 7.642 0 4.22 3.421 7.641 7.642 7.641h44.819c4.221 0 7.642-3.421 7.642-7.641z"/><path d="m92.294 193.584-15.94 6.245c-3.93 1.54-5.867 5.973-4.328 9.903 1.181 3.014 4.064 4.856 7.117 4.856.927 0 1.87-.17 2.785-.528l15.94-6.245c3.93-1.54 5.867-5.973 4.328-9.903-1.54-3.929-5.973-5.868-9.902-4.328z"/><path d="m76.354 67.398 15.94 6.245c.916.359 1.858.528 2.786.528 3.053 0 5.936-1.842 7.117-4.856 1.539-3.929-.398-8.363-4.328-9.903l-15.94-6.245c-3.932-1.539-8.362.398-9.903 4.328-1.539 3.93.398 8.363 4.328 9.903z"/><path d="m474.411 125.972h-44.819c-4.221 0-7.642 3.421-7.642 7.642 0 4.22 3.421 7.641 7.642 7.641h44.819c4.221 0 7.642-3.421 7.642-7.641-.001-4.22-3.422-7.642-7.642-7.642z"/><path d="m414.131 207.814 15.94 6.245c.916.359 1.859.528 2.786.528 3.053 0 5.936-1.842 7.117-4.856 1.539-3.929-.398-8.363-4.327-9.903l-15.94-6.245c-3.933-1.54-8.363.398-9.903 4.328-1.539 3.93.398 8.364 4.327 9.903z"/><path d="m416.921 74.172c.927 0 1.871-.17 2.786-.528l15.94-6.245c3.929-1.54 5.867-5.973 4.327-9.903s-5.975-5.865-9.903-4.328l-15.94 6.245c-3.929 1.54-5.866 5.973-4.327 9.903 1.181 3.014 4.064 4.856 7.117 4.856z"/></g></g></svg>