<svg id="Capa_1" enable-background="new 0 0 512 512" height="512" viewBox="0 0 512 512" width="512" xmlns="http://www.w3.org/2000/svg"><g><g><path clip-rule="evenodd" d="m7.5 131.889 250.895-34.8 246.105 34.8v358.21c0 6.268-5.131 11.401-11.395 11.401h-474.238c-6.265 0-11.367-5.133-11.367-11.401z" fill="#f9f7f7" fill-rule="evenodd"/></g><g><path clip-rule="evenodd" d="m7.5 131.889h497v-90.163c0-6.183-5.074-11.26-11.282-11.26h-474.464c-6.208 0-11.254 5.077-11.254 11.26z" fill="#fe9737" fill-rule="evenodd"/></g><g><path clip-rule="evenodd" d="m504.5 131.889v-90.163c0-6.183-5.074-11.26-11.282-11.26h-28.885c6.18 0 11.254 5.077 11.254 11.26v84.745 5.417h28.913z" fill="#f36b37" fill-rule="evenodd"/></g><g><path clip-rule="evenodd" d="m127.803 233.566v-52.469c0-1.957-1.587-3.545-3.572-3.545h-52.413c-1.956 0-3.572 1.588-3.572 3.545v52.469c0 1.957 1.616 3.545 3.572 3.545h52.413c1.984 0 3.572-1.588 3.572-3.545z" fill="#fe636e" fill-rule="evenodd"/></g><g><path clip-rule="evenodd" d="m235.123 233.566v-52.469c0-1.957-1.587-3.545-3.572-3.545h-52.413c-1.956 0-3.572 1.588-3.572 3.545v52.469c0 1.957 1.616 3.545 3.572 3.545h52.413c1.984 0 3.572-1.588 3.572-3.545z" fill="#62dbfb" fill-rule="evenodd"/></g><g><path clip-rule="evenodd" d="m342.443 181.096c0-1.957-1.587-3.545-3.572-3.545h-52.413c-1.956 0-3.572 1.588-3.572 3.545v52.469c0 1.957 1.616 3.545 3.572 3.545h52.413c1.984 0 3.572-1.588 3.572-3.545z" fill="#62dbfb" fill-rule="evenodd"/></g><g><path clip-rule="evenodd" d="m449.763 233.566v-52.469c0-1.957-1.587-3.545-3.572-3.545h-52.413c-1.956 0-3.572 1.588-3.572 3.545v52.469c0 1.957 1.616 3.545 3.572 3.545h52.413c1.984 0 3.572-1.588 3.572-3.545z" fill="#62dbfb" fill-rule="evenodd"/></g><g><path clip-rule="evenodd" d="m449.763 340.433v-39.423-13.046c0-1.957-1.587-3.545-3.572-3.545h-52.413c-1.956 0-3.572 1.588-3.572 3.545v52.469c0 1.957 1.616 3.574 3.572 3.574h52.413c1.984 0 3.572-1.617 3.572-3.574z" fill="#97da7b" fill-rule="evenodd"/></g><g><path clip-rule="evenodd" d="m342.443 287.964c0-1.957-1.587-3.545-3.572-3.545h-52.413c-1.956 0-3.572 1.588-3.572 3.545v52.469c0 1.957 1.616 3.574 3.572 3.574h52.413c1.984 0 3.572-1.617 3.572-3.574z" fill="#62dbfb" fill-rule="evenodd"/></g><g><path clip-rule="evenodd" d="m235.123 340.433v-52.469c0-1.957-1.587-3.545-3.572-3.545h-52.413c-1.956 0-3.572 1.588-3.572 3.545v52.469c0 1.957 1.616 3.574 3.572 3.574h52.413c1.984 0 3.572-1.617 3.572-3.574z" fill="#62dbfb" fill-rule="evenodd"/></g><g><path clip-rule="evenodd" d="m127.803 340.433v-52.469c0-1.957-1.587-3.545-3.572-3.545h-52.413c-1.956 0-3.572 1.588-3.572 3.545v52.469c0 1.957 1.616 3.574 3.572 3.574h52.413c1.984 0 3.572-1.617 3.572-3.574z" fill="#fe636e" fill-rule="evenodd"/></g><g><path clip-rule="evenodd" d="m127.803 447.301v-52.441c0-1.985-1.587-3.574-3.572-3.574h-52.413c-1.956 0-3.572 1.588-3.572 3.574v52.441c0 1.957 1.616 3.574 3.572 3.574h52.413c1.984-.001 3.572-1.617 3.572-3.574z" fill="#fe636e" fill-rule="evenodd"/></g><g><path clip-rule="evenodd" d="m235.123 447.301v-52.441c0-1.985-1.587-3.574-3.572-3.574h-52.413c-1.956 0-3.572 1.588-3.572 3.574v52.441c0 1.957 1.616 3.574 3.572 3.574h52.413c1.984-.001 3.572-1.617 3.572-3.574z" fill="#62dbfb" fill-rule="evenodd"/></g><g><path clip-rule="evenodd" d="m338.871 391.286h-52.413c-1.956 0-3.572 1.588-3.572 3.574v52.441c0 1.957 1.616 3.574 3.572 3.574h52.413c1.984 0 3.572-1.617 3.572-3.574v-52.441c0-1.986-1.588-3.574-3.572-3.574z" fill="#62dbfb" fill-rule="evenodd"/></g><g><path clip-rule="evenodd" d="m446.191 391.286h-52.413c-1.956 0-3.572 1.588-3.572 3.574v52.441c0 1.957 1.616 3.574 3.572 3.574h52.413c1.984 0 3.572-1.617 3.572-3.574v-52.441c0-1.986-1.588-3.574-3.572-3.574z" fill="#62dbfb" fill-rule="evenodd"/></g><g><path clip-rule="evenodd" d="m127.803 233.566v-52.469c0-1.957-1.587-3.545-3.572-3.545h-21.6c1.956 0 3.572 1.588 3.572 3.545v52.469c0 1.957-1.616 3.545-3.572 3.545h21.6c1.984 0 3.572-1.588 3.572-3.545z" fill="#fb2a39" fill-rule="evenodd"/></g><g><path clip-rule="evenodd" d="m127.803 340.433v-52.469c0-1.957-1.587-3.545-3.572-3.545h-21.6c1.956 0 3.572 1.588 3.572 3.545v52.469c0 1.957-1.616 3.574-3.572 3.574h21.6c1.984 0 3.572-1.617 3.572-3.574z" fill="#fb2a39" fill-rule="evenodd"/></g><g><path clip-rule="evenodd" d="m235.123 340.433v-52.469c0-1.957-1.587-3.545-3.572-3.545h-21.6c1.984 0 3.572 1.588 3.572 3.545v52.469c0 1.957-1.587 3.574-3.572 3.574h21.6c1.984 0 3.572-1.617 3.572-3.574z" fill="#00c0fa" fill-rule="evenodd"/></g><g><path clip-rule="evenodd" d="m235.123 233.566v-52.469c0-1.957-1.587-3.545-3.572-3.545h-21.6c1.984 0 3.572 1.588 3.572 3.545v52.469c0 1.957-1.587 3.545-3.572 3.545h21.6c1.984 0 3.572-1.588 3.572-3.545z" fill="#00c0fa" fill-rule="evenodd"/></g><g><path clip-rule="evenodd" d="m342.443 233.566v-52.469c0-1.957-1.587-3.545-3.572-3.545h-21.6c1.984 0 3.572 1.588 3.572 3.545v52.469c0 1.957-1.587 3.545-3.572 3.545h21.6c1.984 0 3.572-1.588 3.572-3.545z" fill="#00c0fa" fill-rule="evenodd"/></g><g><path clip-rule="evenodd" d="m342.443 340.433v-52.469c0-1.957-1.587-3.545-3.572-3.545h-21.6c1.984 0 3.572 1.588 3.572 3.545v52.469c0 1.957-1.587 3.574-3.572 3.574h21.6c1.984 0 3.572-1.617 3.572-3.574z" fill="#00c0fa" fill-rule="evenodd"/></g><g><path clip-rule="evenodd" d="m342.443 447.301v-52.441c0-1.985-1.587-3.574-3.572-3.574h-21.6c1.984 0 3.572 1.588 3.572 3.574v52.441c0 1.957-1.587 3.574-3.572 3.574h21.6c1.984-.001 3.572-1.617 3.572-3.574z" fill="#00c0fa" fill-rule="evenodd"/></g><g><path clip-rule="evenodd" d="m235.123 447.301v-52.441c0-1.985-1.587-3.574-3.572-3.574h-21.6c1.984 0 3.572 1.588 3.572 3.574v52.441c0 1.957-1.587 3.574-3.572 3.574h21.6c1.984-.001 3.572-1.617 3.572-3.574z" fill="#00c0fa" fill-rule="evenodd"/></g><g><path clip-rule="evenodd" d="m127.803 447.301v-52.441c0-1.985-1.587-3.574-3.572-3.574h-21.6c1.956 0 3.572 1.588 3.572 3.574v52.441c0 1.957-1.616 3.574-3.572 3.574h21.6c1.984-.001 3.572-1.617 3.572-3.574z" fill="#fb2a39" fill-rule="evenodd"/></g><g><path clip-rule="evenodd" d="m449.763 394.86c0-1.985-1.587-3.574-3.572-3.574h-21.6c1.984 0 3.572 1.588 3.572 3.574v52.441c0 1.957-1.587 3.574-3.572 3.574h21.6c1.984 0 3.572-1.617 3.572-3.574z" fill="#00c0fa" fill-rule="evenodd"/></g><g><path clip-rule="evenodd" d="m449.763 301.01v-13.046c0-1.957-1.587-3.545-3.572-3.545h-21.6c1.984 0 3.572 1.588 3.572 3.545v13.046 17.414 22.009c0 1.957-1.587 3.574-3.572 3.574h21.6c1.984 0 3.572-1.617 3.572-3.574z" fill="#68ca44" fill-rule="evenodd"/></g><g><path clip-rule="evenodd" d="m449.763 233.566v-52.469c0-1.957-1.587-3.545-3.572-3.545h-21.6c1.984 0 3.572 1.588 3.572 3.545v52.469c0 1.957-1.587 3.545-3.572 3.545h21.6c1.984 0 3.572-1.588 3.572-3.545z" fill="#00c0fa" fill-rule="evenodd"/></g><g><path clip-rule="evenodd" d="m504.5 490.099v-358.21h-28.913v155.877 202.333c0 6.268-5.102 11.401-11.367 11.401h28.885c6.264 0 11.395-5.133 11.395-11.401z" fill="#e2e2e2" fill-rule="evenodd"/></g><g><path clip-rule="evenodd" d="m185.856 30.467v-11.94c0-4.424-3.6-8.026-8.022-8.026h-77.726c-4.422 0-8.05 3.602-8.05 8.026v11.94 33.58c0 4.424 3.628 8.055 8.05 8.055h77.726c4.422 0 8.022-3.63 8.022-8.055z" fill="#f9f7f7" fill-rule="evenodd"/></g><g><path clip-rule="evenodd" d="m419.942 18.526c0-4.424-3.628-8.026-8.05-8.026h-77.726c-4.422 0-8.05 3.602-8.05 8.026v11.94 33.58c0 4.424 3.628 8.055 8.05 8.055h77.726c4.422 0 8.05-3.63 8.05-8.055v-33.58z" fill="#f9f7f7" fill-rule="evenodd"/></g><g><path clip-rule="evenodd" d="m185.856 30.467v-11.94c0-4.424-3.6-8.026-8.022-8.026h-38.863c4.422 0 8.022 3.602 8.022 8.026v11.94 33.58c0 4.424-3.6 8.055-8.022 8.055h38.863c4.422 0 8.022-3.63 8.022-8.055z" fill="#e2e2e2" fill-rule="evenodd"/></g><g><path clip-rule="evenodd" d="m419.942 64.047v-33.58-11.94c0-4.424-3.628-8.026-8.05-8.026h-38.863c4.422 0 8.022 3.602 8.022 8.026v11.94 33.58c0 4.424-3.6 8.055-8.022 8.055h38.863c4.422 0 8.05-3.63 8.05-8.055z" fill="#e2e2e2" fill-rule="evenodd"/></g><g><path d="m382.707 340.434c0 6.105 4.967 11.073 11.071 11.073h52.413c6.104 0 11.071-4.968 11.071-11.073v-35.828l20.791-16.759c3.225-2.6 3.731-7.321 1.132-10.546-2.598-3.224-7.32-3.733-10.546-1.132l-11.649 9.39c-1.104-4.936-5.523-8.64-10.799-8.64h-52.413c-6.104 0-11.071 4.955-11.071 11.045zm15-48.515h44.556v5.512l-16.626 13.402-4.93-4.976c-2.917-2.944-7.666-2.964-10.606-.05-2.943 2.916-2.965 7.664-.05 10.606l9.694 9.784c1.459 1.473 3.391 2.222 5.33 2.222 1.659 0 3.324-.548 4.705-1.661l12.482-10.062v19.81h-44.556v-44.587z"/><path d="m493.218 22.967h-65.775v-4.44c-.001-8.562-6.976-15.527-15.551-15.527h-77.726c-8.575 0-15.551 6.965-15.551 15.526v4.44h-125.259v-4.44c0-8.561-6.962-15.526-15.522-15.526h-77.726c-8.575 0-15.551 6.965-15.551 15.526v4.44h-65.803c-10.341.001-18.754 8.417-18.754 18.761v90.162 194.165c0 4.143 3.357 7.5 7.5 7.5s7.5-3.357 7.5-7.5v-186.665h223.298c4.143 0 7.5-3.357 7.5-7.5s-3.357-7.5-7.5-7.5h-223.298v-82.662c0-2.038 1.719-3.76 3.754-3.76h65.804v26.08c0 8.577 6.976 15.555 15.551 15.555h77.726c8.56 0 15.522-6.978 15.522-15.555v-26.08h125.259v26.08c0 8.577 6.976 15.555 15.551 15.555h77.726c8.575 0 15.551-6.978 15.551-15.555v-26.08h65.775c2.05 0 3.782 1.722 3.782 3.76v82.664l-223.866.055c-4.142.001-7.499 3.359-7.498 7.502.001 4.142 3.359 7.499 7.502 7.498l223.861-.055v350.708c0 2.115-1.784 3.901-3.896 3.901h-474.237c-2.133 0-3.867-1.75-3.867-3.901v-129.387c0-4.143-3.357-7.5-7.5-7.5s-7.5 3.357-7.5 7.5v129.387c0 10.422 8.464 18.901 18.867 18.901h474.237c10.419 0 18.896-8.479 18.896-18.901v-358.21-90.162c0-10.344-8.426-18.76-18.782-18.76zm-314.862 41.08c0 .29-.249.555-.522.555h-77.726c-.278 0-.551-.274-.551-.555v-45.521c0-.275.263-.526.551-.526h77.726c.278 0 .522.246.522.526zm234.086 0c0 .28-.272.555-.551.555h-77.726c-.283 0-.551-.27-.551-.555v-45.521c0-.275.263-.526.551-.526h77.726c.288 0 .551.251.551.526z"/><path d="m71.818 244.611h52.413c6.104 0 11.071-4.955 11.071-11.046v-52.469c0-6.091-4.967-11.046-11.071-11.046h-52.413c-6.104 0-11.071 4.955-11.071 11.046v52.469c0 6.091 4.967 11.046 11.071 11.046zm3.929-59.56h44.556v44.561h-44.556z"/><path d="m179.139 244.611h52.412c6.105 0 11.072-4.955 11.072-11.046v-52.469c0-6.091-4.967-11.046-11.072-11.046h-52.412c-6.105 0-11.072 4.955-11.072 11.046v52.469c-.001 6.091 4.966 11.046 11.072 11.046zm3.927-59.56h44.557v44.561h-44.557z"/><path d="m286.458 244.611h52.413c6.104 0 11.071-4.955 11.071-11.046v-52.469c0-6.091-4.967-11.046-11.071-11.046h-52.413c-6.104 0-11.071 4.955-11.071 11.046v52.469c0 6.091 4.967 11.046 11.071 11.046zm3.929-59.56h44.556v44.561h-44.556z"/><path d="m60.747 340.434c0 6.105 4.967 11.073 11.071 11.073h52.413c6.104 0 11.071-4.968 11.071-11.073v-52.47c0-6.09-4.967-11.045-11.071-11.045h-52.413c-6.104 0-11.071 4.955-11.071 11.045zm15-48.515h44.556v44.588h-44.556z"/><path d="m168.066 340.434c0 6.105 4.967 11.073 11.072 11.073h52.412c6.105 0 11.072-4.968 11.072-11.073v-52.47c0-6.09-4.967-11.045-11.072-11.045h-52.412c-6.105 0-11.072 4.955-11.072 11.045zm15-48.515h44.557v44.588h-44.557z"/><path d="m275.387 340.434c0 6.105 4.967 11.073 11.071 11.073h52.413c6.104 0 11.071-4.968 11.071-11.073v-52.47c0-6.09-4.967-11.045-11.071-11.045h-52.413c-6.104 0-11.071 4.955-11.071 11.045zm15-48.515h44.556v44.588h-44.556z"/><path d="m60.747 447.301c0 6.105 4.967 11.073 11.071 11.073h52.413c6.104 0 11.071-4.968 11.071-11.073v-52.441c0-6.105-4.967-11.073-11.071-11.073h-52.413c-6.104 0-11.071 4.968-11.071 11.073zm15-48.515h44.556v44.588h-44.556z"/><path d="m168.066 447.301c0 6.105 4.967 11.073 11.072 11.073h52.412c6.105 0 11.072-4.968 11.072-11.073v-52.441c0-6.105-4.967-11.073-11.072-11.073h-52.412c-6.105 0-11.072 4.968-11.072 11.073zm15-48.515h44.557v44.588h-44.557z"/><path d="m275.387 447.301c0 6.105 4.967 11.073 11.071 11.073h52.413c6.104 0 11.071-4.968 11.071-11.073v-52.441c0-6.105-4.967-11.073-11.071-11.073h-52.413c-6.104 0-11.071 4.968-11.071 11.073zm15-48.515h44.556v44.588h-44.556z"/><path d="m393.778 244.611h52.413c6.104 0 11.071-4.955 11.071-11.046v-52.469c0-6.091-4.967-11.046-11.071-11.046h-52.413c-6.104 0-11.071 4.955-11.071 11.046v52.469c0 6.091 4.967 11.046 11.071 11.046zm3.929-59.56h44.556v44.561h-44.556z"/><path d="m382.707 447.301c0 6.105 4.967 11.073 11.071 11.073h52.413c6.104 0 11.071-4.968 11.071-11.073v-52.441c0-6.105-4.967-11.073-11.071-11.073h-52.413c-6.104 0-11.071 4.968-11.071 11.073zm15-48.515h44.556v44.588h-44.556z"/></g></g></svg>